<?xml version="1.0" standalone="no"?>
<!DOCTYPE svg PUBLIC "-//W3C//DTD SVG 20010904//EN"
 "http://www.w3.org/TR/2001/REC-SVG-20010904/DTD/svg10.dtd">
<svg version="1.0" xmlns="http://www.w3.org/2000/svg"
 width="300.000000pt" height="298.000000pt" viewBox="0 0 300.000000 298.000000"
 preserveAspectRatio="xMidYMid meet">
<metadata>
Created by potrace 1.10, written by Peter Selinger 2001-2011
</metadata>
<g transform="translate(0.000000,298.000000) scale(0.050000,-0.050000)"
fill="#000000" stroke="none">
<path d="M1880 4319 c-132 -55 -294 -262 -361 -461 -205 -610 240 -1435 1191
-2211 445 -363 1070 -595 1420 -527 296 58 560 284 560 480 l0 119 -290 293
c-415 419 -457 428 -730 166 l-163 -156 -163 97 c-384 228 -662 514 -884 907
l-65 116 151 155 c264 271 255 312 -152 719 -329 329 -380 359 -514 303z m408
-413 c336 -339 333 -317 93 -555 l-180 -179 83 -151 c272 -499 627 -851 1130
-1122 l125 -68 188 185 c103 101 204 184 225 184 62 0 588 -538 588 -602 0
-67 -162 -223 -296 -284 -504 -233 -1550 361 -2234 1269 -440 583 -509 1148
-184 1491 143 151 145 151 462 -168z"/>
</g>
</svg>
