<?xml version="1.0" standalone="no"?>
<!DOCTYPE svg PUBLIC "-//W3C//DTD SVG 20010904//EN"
 "http://www.w3.org/TR/2001/REC-SVG-20010904/DTD/svg10.dtd">
<svg version="1.0" xmlns="http://www.w3.org/2000/svg"
 width="300.000000pt" height="435.000000pt" viewBox="0 0 300.000000 435.000000"
 preserveAspectRatio="xMidYMid meet">
<metadata>
Created by potrace 1.10, written by Peter Selinger 2001-2011
</metadata>
<g transform="translate(0.000000,435.000000) scale(0.100000,-0.100000)"
fill="#000000" stroke="none">
<path d="M1132 4279 c-242 -31 -543 -223 -720 -458 -152 -202 -212 -406 -212
-721 0 -298 60 -457 367 -970 196 -329 250 -424 332 -588 175 -349 279 -699
350 -1175 26 -176 55 -214 142 -186 59 19 78 55 89 171 20 203 92 524 169 757
94 281 209 516 441 901 303 503 403 714 430 905 13 93 13 314 -1 412 -21 152
-108 361 -207 496 -178 243 -446 411 -722 453 -102 15 -353 17 -458 3z m369
-685 c134 -40 249 -135 309 -257 l32 -65 -4 -154 c-3 -142 -5 -157 -30 -211
-37 -79 -135 -180 -213 -218 -73 -36 -189 -51 -310 -40 -63 6 -95 15 -143 41
-182 96 -292 306 -262 495 32 201 147 339 340 411 51 18 215 17 281 -2z"/>
</g>
</svg>
