<?xml version="1.0" standalone="no"?>
<!DOCTYPE svg PUBLIC "-//W3C//DTD SVG 20010904//EN"
 "http://www.w3.org/TR/2001/REC-SVG-20010904/DTD/svg10.dtd">
<svg version="1.0" xmlns="http://www.w3.org/2000/svg"
 width="300.000000pt" height="200.000000pt" viewBox="0 0 300.000000 200.000000"
 preserveAspectRatio="xMidYMid meet">
<metadata>
Created by potrace 1.10, written by Peter Selinger 2001-2011
</metadata>
<g transform="translate(0.000000,200.000000) scale(0.100000,-0.100000)"
fill="#000000" stroke="none">
<path d="M937 1354 c-4 -4 -7 -18 -7 -31 l0 -23 -275 0 -275 0 0 -324 0 -324
33 -11 c253 -80 376 -107 384 -85 2 5 19 34 37 64 l32 55 77 3 77 3 30 -47
c16 -26 32 -56 36 -66 5 -17 26 -18 370 -18 l364 0 0 264 c0 231 2 265 16 270
9 3 53 6 99 6 46 0 90 -3 99 -6 14 -5 16 -39 16 -271 l0 -264 22 3 c14 2 32
23 56 66 l34 63 81 -3 80 -3 35 -62 34 -63 84 0 84 0 0 165 c0 155 -3 177 -40
353 -22 103 -42 197 -45 210 -5 22 -7 22 -195 22 l-189 0 -3 28 -3 27 -150 0
-150 0 -3 -27 -3 -28 -269 0 -269 0 -3 28 -3 27 -146 3 c-80 1 -148 -1 -152
-4z m883 -149 c0 -13 -61 -15 -490 -15 -429 0 -490 2 -490 15 0 13 61 15 490
15 429 0 490 -2 490 -15z m620 -57 c8 -21 50 -219 50 -239 0 -5 -61 -9 -135
-9 l-135 0 0 128 c0 71 3 132 7 135 3 4 51 7 105 7 93 0 99 -1 108 -22z
m-1732 -55 l3 -63 -101 0 -100 0 0 58 c0 32 3 62 7 66 4 4 48 5 98 4 l90 -3 3
-62z m647 -53 l0 -85 -140 0 -140 0 -3 74 c-2 41 -1 80 2 88 5 11 34 13 143
11 l138 -3 0 -85z m383 3 l-3 -88 -140 0 -140 0 -3 74 c-2 41 -1 80 2 88 4 10
38 13 146 13 l141 0 -3 -87z m-1050 -235 l3 -88 -91 0 -90 0 0 90 0 91 88 -3
87 -3 3 -87z m770 -90 l3 -58 -91 0 -90 0 0 60 0 61 88 -3 87 -3 3 -57z m270
0 l3 -58 -91 0 -90 0 0 60 0 61 88 -3 87 -3 3 -57z m812 -18 c0 -17 -7 -20
-39 -20 -22 0 -43 5 -46 10 -11 19 6 30 46 30 32 0 39 -3 39 -20z"/>
<path d="M530 810 l0 -70 70 0 71 0 -3 68 -3 67 -67 3 -68 3 0 -71z"/>
<path d="M1300 715 l0 -35 70 0 70 0 0 35 0 35 -70 0 -70 0 0 -35z"/>
<path d="M1570 715 l0 -35 70 0 70 0 0 35 0 35 -70 0 -70 0 0 -35z"/>
<path d="M1840 810 l0 -260 95 0 95 0 -2 258 -3 257 -92 3 -93 3 0 -261z m134
194 c3 -9 6 -42 6 -74 0 -65 -13 -83 -57 -78 -27 3 -28 5 -31 72 -2 38 -1 75
2 83 8 19 72 17 80 -3z"/>
<path d="M874 626 c-58 -58 -42 -141 32 -172 115 -48 208 121 101 186 -50 31
-93 26 -133 -14z m123 -18 c16 -15 23 -33 23 -58 0 -60 -55 -93 -108 -66 -49
25 -57 82 -17 121 30 31 71 32 102 3z"/>
<path d="M925 574 c-18 -19 -16 -33 7 -48 12 -7 21 -6 32 3 22 18 20 38 -3 51
-15 7 -24 6 -36 -6z"/>
<path d="M2190 647 c-34 -17 -62 -74 -55 -112 3 -16 17 -41 31 -56 69 -72 184
-21 184 82 0 44 -56 99 -101 99 -19 0 -45 -6 -59 -13z m105 -42 c31 -30 32
-66 2 -101 -57 -66 -166 3 -126 79 28 52 84 63 124 22z"/>
<path d="M2225 576 c-25 -18 -15 -51 15 -51 20 0 26 6 28 26 4 31 -18 44 -43
25z"/>
</g>
</svg>
