<?xml version="1.0" standalone="no"?>
<!DOCTYPE svg PUBLIC "-//W3C//DTD SVG 20010904//EN"
 "http://www.w3.org/TR/2001/REC-SVG-20010904/DTD/svg10.dtd">
<svg version="1.0" xmlns="http://www.w3.org/2000/svg"
 width="774.000000pt" height="645.000000pt" viewBox="0 0 774.000000 645.000000"
 preserveAspectRatio="xMidYMid meet">
<metadata>
Created by potrace 1.10, written by Peter Selinger 2001-2011
</metadata>
<g transform="translate(0.000000,645.000000) scale(0.100000,-0.100000)"
fill="#000000" stroke="none">
<path d="M2310 5434 c-25 -7 -53 -14 -62 -14 -15 0 -101 -39 -191 -87 -41 -21
-143 -120 -190 -182 -43 -57 -61 -90 -92 -171 -10 -25 -24 -60 -31 -77 -8 -18
-20 -48 -27 -65 -8 -18 -21 -49 -29 -68 -9 -19 -23 -55 -33 -80 -10 -25 -23
-58 -30 -75 -8 -16 -28 -66 -45 -110 -72 -180 -94 -225 -110 -229 -8 -3 -71
-10 -140 -16 -226 -20 -391 -63 -447 -117 l-36 -33 6 -142 c5 -123 9 -149 28
-188 46 -89 163 -174 258 -187 61 -8 62 -9 50 -40 -85 -212 -120 -338 -166
-603 -16 -96 -18 -178 -18 -985 l0 -880 28 -55 c32 -64 57 -94 111 -135 75
-57 88 -59 380 -62 237 -3 276 -2 320 14 57 20 143 80 166 115 59 93 63 111
69 353 l6 220 1799 3 c1097 1 1804 -2 1809 -7 5 -5 9 -88 8 -186 -3 -267 16
-333 118 -427 86 -79 95 -81 405 -85 283 -4 326 1 396 46 44 28 99 91 128 144
l27 52 0 895 c0 814 -2 904 -18 990 -37 200 -61 305 -89 385 -5 17 -13 44 -18
60 -4 17 -21 61 -38 100 -17 38 -29 72 -26 76 2 3 25 9 51 12 70 8 137 40 193
93 57 53 77 87 96 164 18 74 18 233 0 268 -34 66 -208 117 -489 144 l-138 13
-36 85 c-19 47 -42 101 -51 120 -21 48 -35 82 -72 175 -17 44 -38 94 -45 110
-7 17 -27 66 -45 110 -74 184 -88 211 -136 276 -48 62 -150 160 -191 183 -96
51 -167 81 -236 97 -75 18 -147 19 -1605 18 -1289 0 -1534 -3 -1572 -15z
m3165 -210 c77 -31 151 -81 197 -134 49 -56 68 -92 128 -240 12 -30 26 -59 31
-64 5 -6 9 -16 9 -23 0 -7 14 -44 31 -81 38 -81 61 -134 102 -234 8 -18 21
-50 30 -70 9 -21 25 -55 34 -75 16 -36 30 -70 59 -138 7 -16 24 -55 37 -85 14
-30 35 -80 47 -110 13 -30 35 -82 50 -115 45 -100 55 -148 40 -199 -7 -24 -24
-55 -39 -69 -28 -26 -99 -57 -131 -57 -21 0 -50 35 -50 62 0 21 -54 134 -94
198 -79 125 -250 263 -396 318 -190 71 -417 71 -600 -1 -224 -88 -405 -275
-484 -502 l-24 -70 -1394 -3 c-1545 -3 -1440 -7 -1509 64 -32 33 -34 39 -34
103 0 41 6 81 16 102 15 32 31 68 63 142 8 17 22 50 32 72 23 53 44 102 61
142 16 41 38 93 57 136 51 113 66 148 86 197 13 30 31 73 41 95 10 22 56 129
103 238 47 109 99 217 117 240 73 95 201 168 314 178 39 3 734 5 1545 5 1451
-2 1476 -2 1525 -22z m-30 -1329 c140 -51 263 -151 330 -270 59 -105 113 -95
-515 -95 -382 0 -550 3 -550 11 0 36 63 132 135 204 128 129 232 172 416 174
100 1 126 -2 184 -24z m-3102 -849 c59 -22 102 -56 138 -110 32 -48 34 -56 33
-136 0 -99 -22 -151 -82 -199 -81 -63 -64 -60 -495 -61 -424 -1 -409 -3 -483
50 -38 27 -80 97 -94 155 -15 63 -4 130 32 192 24 40 108 103 151 113 18 5
196 8 397 9 282 0 374 -3 403 -13z m3943 -13 c89 -48 150 -151 147 -248 -3
-88 -72 -189 -156 -227 -34 -16 -78 -18 -432 -18 -383 0 -396 1 -435 21 -53
28 -92 67 -120 121 -30 57 -31 177 -3 230 36 67 102 121 168 138 17 5 201 8
410 7 371 -2 381 -3 421 -24z"/>
</g>
</svg>
