<?xml version="1.0" standalone="no"?>
<!DOCTYPE svg PUBLIC "-//W3C//DTD SVG 20010904//EN"
 "http://www.w3.org/TR/2001/REC-SVG-20010904/DTD/svg10.dtd">
<svg version="1.0" xmlns="http://www.w3.org/2000/svg"
 width="225.000000pt" height="225.000000pt" viewBox="0 0 225.000000 225.000000"
 preserveAspectRatio="xMidYMid meet">
<metadata>
Created by potrace 1.10, written by Peter Selinger 2001-2011
</metadata>
<g transform="translate(0.000000,225.000000) scale(0.100000,-0.100000)"
fill="#000000" stroke="none">
<path d="M572 1759 c-67 -20 -98 -68 -203 -319 -97 -235 -98 -235 -141 -258
-64 -33 -114 -91 -132 -153 -13 -42 -16 -107 -16 -331 l0 -278 84 0 84 0 4
-112 c3 -99 6 -117 26 -146 50 -69 148 -87 220 -40 58 39 72 77 72 197 l0 101
545 0 545 0 0 -87 c0 -110 11 -151 52 -190 84 -80 211 -54 259 51 14 30 19 65
19 134 l0 92 83 0 82 0 -5 307 -5 308 -28 48 c-26 44 -90 97 -136 112 -10 3
-56 103 -116 247 -107 261 -128 294 -202 316 -50 15 -1039 16 -1091 1z m1142
-69 c25 -26 57 -90 125 -254 50 -121 98 -230 106 -242 8 -12 37 -35 64 -50 28
-15 62 -44 78 -67 l28 -40 3 -294 3 -293 -65 0 c-89 0 -96 -8 -96 -121 0 -146
-37 -199 -136 -199 -48 0 -59 4 -92 34 l-37 34 -3 109 c-3 80 -8 112 -19 126
-15 16 -54 17 -556 17 -489 0 -542 -2 -559 -17 -15 -13 -18 -32 -18 -115 0
-112 -13 -149 -60 -173 -37 -19 -103 -19 -139 -1 -51 27 -61 55 -61 167 0 131
-6 139 -102 139 l-68 0 0 268 c0 155 4 283 11 305 13 50 59 101 115 127 52 26
53 27 159 280 99 237 108 253 147 279 33 21 37 21 585 18 l553 -2 34 -35z"/>
<path d="M602 1645 c-22 -18 -49 -72 -105 -207 -91 -220 -94 -230 -72 -252 15
-14 79 -16 694 -16 813 0 738 -16 671 148 -94 231 -131 308 -155 330 l-26 22
-489 0 -488 0 -30 -25z m1012 -14 c14 -5 46 -69 103 -207 46 -109 86 -203 89
-209 3 -7 -229 -10 -686 -10 -379 0 -690 0 -690 1 0 17 176 413 187 422 13 9
128 12 497 11 265 0 490 -4 500 -8z"/>
<path d="M378 1070 c-185 -57 -201 -301 -26 -375 167 -69 329 134 228 286 -46
70 -136 110 -202 89z m123 -46 c37 -19 67 -59 80 -107 31 -116 -88 -232 -203
-198 -23 7 -56 27 -74 45 -135 135 27 348 197 260z"/>
<path d="M1755 1069 c-76 -22 -144 -114 -145 -194 0 -95 100 -195 195 -195 95
0 195 99 195 194 0 81 -70 174 -147 195 -44 12 -57 12 -98 0z m90 -30 c109
-30 157 -148 100 -245 -27 -46 -90 -84 -140 -84 -50 0 -113 38 -140 84 -56 95
-15 204 92 241 47 17 40 17 88 4z"/>
</g>
</svg>
