<?xml version="1.0" standalone="no"?>
<!DOCTYPE svg PUBLIC "-//W3C//DTD SVG 20010904//EN"
 "http://www.w3.org/TR/2001/REC-SVG-20010904/DTD/svg10.dtd">
<svg version="1.0" xmlns="http://www.w3.org/2000/svg"
 width="840.000000pt" height="1399.000000pt" viewBox="0 0 840.000000 1399.000000"
 preserveAspectRatio="xMidYMid meet">
<metadata>
Created by potrace 1.16, written by Peter Selinger 2001-2019
</metadata>
<g transform="translate(0.000000,1399.000000) scale(0.100000,-0.100000)"
fill="#000000" stroke="none">
<path d="M3690 13580 c-688 -33 -1278 -113 -1785 -242 -540 -136 -905 -304
-1105 -508 -86 -87 -132 -170 -150 -270 -13 -75 -90 -434 -93 -436 -49 -32
-265 -200 -271 -211 -4 -9 -23 -79 -41 -157 -18 -77 -36 -148 -39 -157 -4 -9
11 -213 34 -455 l40 -439 38 -35 c20 -19 50 -45 65 -57 l29 -22 184 -1218
c101 -670 205 -1353 230 -1518 95 -630 176 -1170 214 -1420 22 -143 69 -456
105 -695 36 -239 83 -552 105 -695 22 -143 73 -483 114 -755 41 -272 150 -990
241 -1595 91 -605 169 -1110 172 -1122 7 -31 201 -215 318 -303 662 -498 1679
-714 2725 -579 682 88 1301 324 1724 656 98 77 264 246 271 274 3 13 57 440
120 949 63 509 187 1505 275 2215 88 710 217 1740 285 2290 68 550 192 1543
275 2208 l150 1207 70 82 c39 45 87 109 106 143 l34 62 20 299 c15 219 24 307
36 330 14 28 14 46 -5 213 -12 100 -21 184 -21 188 0 4 -63 70 -140 148 l-141
141 -49 190 c-27 105 -56 226 -65 270 -43 208 -204 369 -530 529 -503 247
-1289 414 -2265 480 -265 19 -1027 27 -1280 15z m1090 -130 c1130 -59 2087
-269 2557 -562 108 -67 230 -181 267 -248 36 -66 31 -115 -21 -220 -135 -267
-595 -504 -1278 -659 -266 -60 -491 -96 -900 -146 -96 -12 -397 -35 -592 -46
-286 -15 -1109 -6 -1378 15 -769 62 -1410 190 -1880 376 l-30 12 39 13 c55 19
116 81 116 118 0 28 -8 37 -70 86 -14 11 14 1 62 -23 333 -166 911 -296 1603
-360 366 -34 530 -41 1025 -41 495 0 659 7 1025 41 809 75 1461 242 1749 448
156 111 209 239 152 362 -48 103 -141 179 -327 269 -382 183 -1004 308 -1854
372 -323 24 -1174 24 -1495 0 -853 -65 -1494 -195 -1863 -377 -230 -115 -337
-228 -337 -360 0 -70 25 -125 87 -192 26 -29 38 -46 26 -38 -13 8 -74 50 -137
93 -62 43 -130 82 -150 87 -56 12 -104 -3 -153 -52 -38 -37 -43 -48 -41 -78 3
-33 11 -41 178 -153 96 -64 179 -122 185 -129 17 -19 -146 71 -231 128 -160
106 -334 297 -334 366 0 16 11 50 24 76 172 340 1012 639 2151 767 192 21 569
51 740 58 189 8 913 6 1085 -3z m145 -251 c858 -48 1567 -185 1960 -379 138
-68 224 -131 266 -197 61 -98 46 -170 -57 -270 -52 -50 -90 -74 -206 -132
-272 -133 -632 -229 -1135 -300 -384 -55 -640 -76 -1123 -92 l-345 -12 -1015
588 c-558 324 -1017 590 -1019 592 -10 8 16 15 172 48 450 94 972 150 1587
169 167 5 718 -4 915 -15z m-2772 -252 c-89 -167 -419 -737 -428 -737 -5 0
-44 20 -86 45 -143 83 -229 183 -229 265 0 136 205 284 560 404 91 31 173 56
183 56 17 0 17 -1 0 -33z m1062 -582 c501 -290 914 -531 920 -536 10 -10 -125
-7 -470 12 -456 24 -926 83 -1278 160 -239 52 -588 160 -589 183 0 4 95 176
212 382 l212 375 42 -24 c22 -14 451 -262 951 -552z m-1818 -107 c121 -84 219
-157 217 -163 -8 -19 -71 -55 -97 -55 -19 0 -99 49 -252 152 l-225 152 32 33
c58 60 74 54 325 -119z m-474 -87 c476 -388 1370 -632 2652 -723 240 -17 1121
-17 1360 0 943 67 1640 205 2140 424 259 113 477 271 578 417 36 52 30 61 77
-124 l33 -130 138 -140 137 -140 17 -140 16 -140 -41 -37 c-44 -39 -214 -157
-290 -200 -510 -292 -1254 -489 -2160 -572 -355 -33 -547 -40 -1025 -41 -498
0 -706 8 -1135 46 -1432 124 -2649 467 -3030 853 l-54 56 29 132 30 133 134
101 c74 56 137 108 141 115 4 8 20 73 35 144 15 72 30 134 33 139 2 4 29 -19
59 -53 30 -34 87 -87 126 -120z m-506 -834 c363 -274 1077 -510 2028 -671
1007 -171 2203 -216 3195 -121 1002 97 1834 342 2324 686 38 27 71 48 72 46 1
-1 -5 -103 -13 -227 -17 -251 -20 -264 -98 -362 -163 -207 -581 -429 -1098
-583 -1096 -328 -2590 -431 -3877 -269 -1018 128 -1841 406 -2400 810 -41 30
-92 69 -112 87 l-37 32 -26 276 c-25 281 -29 339 -20 339 3 0 31 -20 62 -43z
m272 -934 c635 -382 1514 -631 2566 -727 586 -54 1277 -54 1905 0 1082 92
2079 356 2573 682 20 14 39 23 41 21 3 -2 -240 -1966 -538 -4363 l-543 -4360
-93 -89 c-424 -407 -1102 -677 -1925 -767 -162 -18 -602 -24 -775 -11 -740 56
-1343 270 -1795 635 -44 35 -110 95 -146 133 l-66 68 -667 4420 c-366 2431
-666 4424 -666 4428 0 5 5 5 12 1 7 -4 59 -36 117 -71z"/>
</g>
</svg>
