<?xml version="1.0" standalone="no"?>
<!DOCTYPE svg PUBLIC "-//W3C//DTD SVG 20010904//EN"
 "http://www.w3.org/TR/2001/REC-SVG-20010904/DTD/svg10.dtd">
<svg version="1.0" xmlns="http://www.w3.org/2000/svg"
 width="900.000000pt" height="900.000000pt" viewBox="0 0 900.000000 900.000000"
 preserveAspectRatio="xMidYMid meet">
<metadata>
Created by potrace 1.10, written by Peter Selinger 2001-2011
</metadata>
<g transform="translate(0.000000,900.000000) scale(0.100000,-0.100000)"
fill="#000000" stroke="none">
<path d="M3615 8784 c-44 -13 -102 -28 -128 -34 -27 -5 -70 -17 -95 -26 -26
-9 -83 -24 -127 -34 -44 -10 -105 -25 -135 -34 -30 -9 -79 -20 -108 -26 -29
-5 -68 -14 -85 -19 -18 -6 -54 -16 -80 -23 -27 -7 -53 -18 -57 -24 -5 -6 -10
-393 -10 -885 l-1 -874 67 3 c47 2 72 -2 83 -11 29 -26 56 -27 136 -6 l79 20
18 -23 c10 -13 18 -34 18 -47 0 -21 4 -23 33 -18 17 2 84 13 147 23 63 9 126
17 140 16 14 -2 63 -2 110 0 108 2 124 2 184 -6 42 -5 47 -4 36 9 -7 8 -10 21
-7 29 11 29 -141 39 -245 16 -42 -10 -64 -10 -80 -3 -17 8 -19 12 -8 16 35 11
118 30 158 37 47 8 67 20 33 20 -12 0 -33 7 -47 16 -21 15 -31 15 -67 4 -23
-6 -49 -16 -57 -21 -58 -34 -76 -39 -184 -45 -102 -6 -119 -5 -135 10 -12 11
-37 18 -70 18 -29 1 -54 5 -57 10 -3 4 -20 8 -38 8 -19 0 -50 7 -70 15 -32 14
-36 19 -36 51 0 28 5 37 21 41 12 4 18 11 15 20 -3 8 -6 17 -6 19 0 2 -18 4
-40 4 -42 0 -59 17 -44 41 4 7 8 29 8 48 1 35 2 36 41 36 39 0 40 -1 40 -37 0
-40 11 -60 21 -35 3 9 20 19 37 23 l30 6 -31 14 c-33 13 -40 28 -21 40 21 13
-14 23 -58 17 -53 -7 -86 13 -57 34 21 15 70 17 79 3 9 -15 25 -2 25 20 0 14
9 20 33 23 l32 4 -33 1 -33 2 3 63 c3 57 5 62 28 65 14 2 29 8 34 13 17 16
-53 10 -79 -7 -34 -22 -95 -10 -95 20 0 12 5 27 12 34 9 9 9 15 0 24 -31 31
15 61 57 38 18 -9 20 -17 15 -50 -5 -32 -3 -40 9 -40 17 0 29 44 15 58 -5 5
-6 21 -3 35 6 20 15 28 44 34 l36 7 -35 6 c-28 4 -38 12 -53 43 -11 24 -30 44
-53 54 -25 12 -33 21 -28 32 4 9 7 32 6 51 -11 576 -9 633 14 687 24 55 46 73
91 73 15 0 37 7 47 15 11 8 29 15 40 15 11 0 33 4 50 9 17 5 65 17 106 26 123
27 212 54 267 83 34 17 56 23 62 17 6 -6 13 -53 18 -105 l7 -95 8 98 c9 106
26 146 65 147 40 0 44 -39 42 -460 -4 -894 1 -1284 17 -1304 7 -11 14 -27 14
-36 0 -13 11 -15 63 -14 34 0 72 4 85 8 32 11 28 29 -5 22 -28 -6 -66 8 -126
49 -25 16 -28 23 -24 54 8 51 8 1467 1 1496 -7 30 14 134 31 152 17 16 109 12
254 -12 70 -11 111 -14 125 -8 27 13 258 6 311 -8 22 -6 72 -13 110 -14 299
-11 592 -35 637 -51 22 -8 45 -11 51 -7 16 10 149 6 397 -12 52 -4 148 -7 212
-8 64 -1 121 -6 127 -12 5 -5 13 -22 16 -37 6 -22 4 -28 -8 -28 -9 0 -19 5
-22 10 -8 12 -55 13 -73 1 -8 -5 -12 -21 -11 -38 2 -17 -5 -47 -16 -66 -17
-33 -18 -43 -7 -109 15 -94 16 -1048 1 -1095 -8 -25 -7 -39 7 -64 10 -20 16
-55 16 -87 0 -46 3 -55 23 -64 36 -16 65 5 65 47 0 18 4 37 10 40 17 10 11 25
-20 57 -30 29 -30 31 -15 61 8 16 15 38 15 47 0 9 9 25 21 36 19 17 23 17 47
3 15 -8 28 -25 30 -39 2 -14 10 -29 18 -33 21 -12 17 -37 -5 -37 -28 0 -37
-20 -12 -27 30 -8 22 -25 -21 -46 -35 -17 -36 -20 -26 -48 5 -16 23 -39 40
-50 18 -14 27 -27 23 -36 -3 -9 3 -22 12 -29 16 -12 16 -15 3 -24 -8 -5 -34
-12 -58 -16 -73 -11 -33 -20 69 -16 l97 4 0 36 c0 21 2 48 4 62 3 22 -1 25
-32 27 -19 1 -40 2 -46 2 -9 1 -11 200 -11 749 0 411 -3 757 -7 770 -11 33 9
51 56 50 28 0 46 5 54 17 10 13 17 14 33 6 11 -6 60 -12 108 -12 111 0 199
-23 208 -53 12 -40 17 -251 7 -306 -9 -50 -8 -56 14 -83 21 -25 24 -38 24
-120 0 -51 0 -103 -1 -117 0 -14 -1 -55 -2 -92 -2 -72 -8 -84 -47 -91 -25 -4
-24 -4 7 -16 40 -16 47 -34 27 -73 -15 -28 -15 -34 -1 -57 19 -32 17 -171 -2
-195 -10 -12 -10 -19 3 -38 32 -45 9 -129 -27 -99 -8 6 -17 8 -20 4 -15 -14
-5 -32 28 -52 41 -24 44 -44 10 -93 -21 -31 -23 -39 -13 -66 12 -30 11 -33
-20 -94 -2 -3 11 -9 29 -13 l32 -7 -30 -13 c-18 -8 -90 -14 -181 -16 -134 -4
-175 -10 -161 -23 2 -2 54 -6 114 -8 61 -2 111 -8 112 -13 2 -6 -14 -11 -35
-12 -98 -7 -322 -16 -359 -16 -35 0 -43 -3 -43 -17 0 -18 42 -36 59 -25 5 2
23 -2 40 -11 47 -23 220 -28 271 -8 22 9 42 25 46 36 4 15 12 18 31 13 15 -3
47 2 79 15 30 11 66 20 79 20 13 0 26 4 29 8 3 5 8 401 12 880 5 686 4 875 -6
887 -9 11 -33 15 -84 15 -39 0 -127 7 -196 15 -69 8 -190 15 -270 15 -80 0
-179 5 -220 10 -41 6 -173 15 -293 20 -121 5 -269 14 -330 20 -142 12 -552 39
-677 44 -142 5 -426 25 -595 42 -219 21 -313 18 -410 -12z m2467 -366 c28 -31
36 -62 18 -73 -5 -3 -10 -19 -10 -35 0 -54 -75 -66 -101 -17 -7 12 -19 27 -28
34 -14 10 -14 13 2 30 9 11 17 27 17 36 0 8 5 28 10 42 9 23 14 26 37 20 14
-3 39 -20 55 -37z m-161 -111 c-13 -13 -26 -3 -16 12 3 6 11 8 17 5 6 -4 6
-10 -1 -17z m122 -130 c4 -27 6 -225 5 -440 -3 -364 -4 -394 -22 -420 -15 -21
-21 -25 -32 -16 -19 16 -21 898 -2 917 24 24 42 8 51 -41z m-3083 -579 c25
-27 25 -35 1 -48 -49 -26 -103 0 -82 38 20 37 52 41 81 10z m-2 -230 c24 -24
13 -38 -28 -38 -28 0 -43 5 -47 16 -11 29 50 47 75 22z m2 -74 c13 -34 14 -33
-15 -44 -16 -6 -34 -6 -50 0 -23 9 -25 12 -14 32 24 46 64 52 79 12z m2974
-143 c3 -5 -1 -12 -10 -15 -22 -9 -24 -8 -24 9 0 16 25 21 34 6z m-2594 -361
c11 -7 4 -10 -25 -9 -31 0 -36 2 -20 9 26 11 28 11 45 0z"/>
<path d="M4310 8530 c0 -6 49 -10 137 -10 75 0 134 2 132 4 -11 9 -269 16
-269 6z"/>
<path d="M6248 8535 c-11 -17 -8 -725 3 -725 11 0 10 -34 15 310 4 279 -3 438
-18 415z"/>
<path d="M4890 8500 c-11 -7 -5 -10 23 -10 23 0 36 4 32 10 -8 13 -35 13 -55
0z"/>
<path d="M5345 8470 c-13 -6 6 -9 60 -9 55 -1 75 2 65 9 -18 12 -98 12 -125 0z"/>
<path d="M5523 8463 c9 -2 25 -2 35 0 9 3 1 5 -18 5 -19 0 -27 -2 -17 -5z"/>
<path d="M3895 8409 c-5 -13 -9 -271 -10 -574 -1 -526 0 -551 18 -580 10 -16
29 -38 42 -47 40 -30 171 -48 445 -58 146 -6 306 -13 355 -15 127 -6 505 -15
660 -15 72 0 156 -5 187 -11 57 -11 128 -6 128 10 0 16 -125 33 -284 37 -88 3
-204 10 -256 15 -52 6 -219 12 -370 13 -280 3 -584 13 -744 24 -82 7 -90 9
-110 35 -24 33 -25 44 -25 748 -1 327 -4 409 -15 424 -13 18 -14 18 -21 -6z"/>
<path d="M3603 8070 c0 -30 2 -43 4 -27 2 15 2 39 0 55 -2 15 -4 2 -4 -28z"/>
<path d="M3603 7750 c0 -25 2 -35 4 -22 2 12 2 32 0 45 -2 12 -4 2 -4 -23z"/>
<path d="M6240 7426 c0 -226 4 -357 10 -361 6 -4 10 6 10 24 0 16 5 33 11 37
7 4 8 23 4 51 -8 56 -9 429 -1 442 4 5 1 13 -5 16 -7 5 -9 23 -5 50 4 24 4 55
0 69 -18 74 -24 -4 -24 -328z"/>
<path d="M3020 7665 c-11 -13 -8 -15 18 -15 16 0 35 -7 42 -15 11 -13 15 -13
21 -3 17 27 10 40 -17 34 -14 -4 -32 -2 -39 4 -9 7 -16 6 -25 -5z"/>
<path d="M3393 7633 c-24 -9 -13 -20 17 -15 16 2 27 8 24 13 -6 10 -21 11 -41
2z"/>
<path d="M3480 7623 c0 -5 5 -15 10 -23 8 -12 10 -11 10 8 0 12 -4 22 -10 22
-5 0 -10 -3 -10 -7z"/>
<path d="M3204 7596 c-6 -17 2 -36 17 -36 12 0 12 37 -1 45 -6 3 -13 -1 -16
-9z"/>
<path d="M3342 7598 c6 -18 28 -21 28 -4 0 9 -7 16 -16 16 -9 0 -14 -5 -12
-12z"/>
<path d="M3092 7580 c-14 -12 -18 -21 -11 -25 6 -4 9 -27 7 -53 -2 -32 1 -46
11 -50 11 -4 13 5 8 46 -5 46 -3 53 18 70 23 19 24 32 1 32 -6 -1 -21 -9 -34
-20z"/>
<path d="M3598 7440 c-3 -69 -5 -192 -4 -275 1 -126 3 -150 16 -150 9 0 14 8
13 20 -2 11 -3 121 -3 245 -1 262 -14 355 -22 160z"/>
<path d="M3264 7541 c-15 -15 4 -22 53 -19 75 4 82 24 7 24 -30 -1 -58 -3 -60
-5z"/>
<path d="M3195 7510 c-8 -13 20 -24 41 -16 20 8 9 26 -16 26 -10 0 -22 -5 -25
-10z"/>
<path d="M3395 7481 c-7 -12 31 -25 45 -16 6 4 8 11 5 16 -8 12 -42 12 -50 0z"/>
<path d="M3266 7441 c5 -5 29 -5 54 -1 l45 7 -54 2 c-33 0 -51 -3 -45 -8z"/>
<path d="M3083 7429 c-8 -8 -8 -19 0 -40 9 -22 9 -34 -1 -49 -10 -17 -10 -21
3 -26 23 -9 25 -3 28 61 2 58 -8 76 -30 54z"/>
<path d="M3210 7425 c0 -8 5 -15 10 -15 6 0 10 7 10 15 0 8 -4 15 -10 15 -5 0
-10 -7 -10 -15z"/>
<path d="M3270 7391 c0 -9 90 -22 103 -14 4 2 5 9 2 14 -8 11 -105 12 -105 0z"/>
<path d="M3135 7360 c-4 -6 5 -10 20 -10 15 0 24 4 20 10 -3 6 -12 10 -20 10
-8 0 -17 -4 -20 -10z"/>
<path d="M3201 7361 c-11 -7 -9 -10 8 -16 26 -8 49 4 30 16 -17 11 -21 11 -38
0z"/>
<path d="M4850 7354 c0 -14 3 -14 15 -4 8 7 15 14 15 16 0 2 -7 4 -15 4 -8 0
-15 -7 -15 -16z"/>
<path d="M4920 7342 c0 -26 5 -35 26 -42 41 -16 74 -13 74 8 0 25 -20 42 -50
42 -14 0 -31 5 -38 12 -9 9 -12 5 -12 -20z"/>
<path d="M3400 7330 c-11 -7 -1 -10 35 -9 37 0 45 3 30 9 -27 12 -47 12 -65 0z"/>
<path d="M4820 7290 c0 -16 5 -30 10 -30 6 0 10 14 10 30 0 17 -4 30 -10 30
-5 0 -10 -13 -10 -30z"/>
<path d="M3243 7303 c-57 -4 -63 -11 -34 -37 18 -17 20 -17 29 1 8 14 23 18
63 18 33 0 54 5 56 13 5 12 -1 13 -114 5z"/>
<path d="M3084 7267 c-3 -8 0 -25 5 -39 7 -18 6 -29 -2 -37 -8 -8 -7 -15 6
-28 16 -16 17 -16 17 4 0 32 58 45 101 23 16 -9 19 -7 19 10 0 17 -6 20 -32
19 -18 -2 -46 -2 -61 -1 -26 2 -28 4 -22 32 5 24 3 30 -10 30 -8 0 -18 -6 -21
-13z"/>
<path d="M3320 7229 c54 -15 63 -15 67 -1 3 9 -10 12 -49 11 -52 -1 -52 -1
-18 -10z"/>
<path d="M3395 7180 c-4 -6 6 -10 22 -10 22 0 25 2 13 10 -19 12 -27 12 -35 0z"/>
<path d="M3232 7142 c-12 -8 -22 -18 -22 -23 0 -15 27 -10 34 6 4 11 21 15 66
15 77 0 79 15 2 16 -36 1 -66 -5 -80 -14z"/>
<path d="M3091 7126 c-11 -13 -11 -20 -3 -28 15 -15 24 -5 20 23 -3 21 -4 21
-17 5z"/>
<path d="M6485 7060 c-4 -6 10 -10 34 -10 23 0 41 5 41 10 0 6 -15 10 -34 10
-19 0 -38 -4 -41 -10z"/>
<path d="M3140 7044 c0 -12 6 -15 23 -10 12 3 27 6 32 6 6 0 3 5 -5 10 -23 15
-50 12 -50 -6z"/>
<path d="M3020 7025 c0 -8 9 -15 20 -15 24 0 27 15 4 24 -22 9 -24 8 -24 -9z"/>
<path d="M3180 6915 c0 -15 4 -24 10 -20 6 3 10 12 10 20 0 8 -4 17 -10 20 -6
4 -10 -5 -10 -20z"/>
<path d="M3972 6796 c-14 -23 -30 -36 -49 -39 -15 -3 25 -2 89 1 64 3 201 0
305 -6 103 -7 276 -14 383 -17 107 -3 290 -9 405 -13 253 -10 365 -5 365 13 0
25 -66 34 -290 39 -347 7 -853 26 -870 33 -8 3 -40 7 -70 9 -30 2 -98 6 -151
9 l-97 6 -20 -35z"/>
<path d="M5531 6750 c-18 -11 -30 -24 -26 -28 3 -4 82 -10 173 -13 92 -4 184
-10 205 -14 l37 -8 -6 34 c-4 19 -8 35 -10 37 -1 2 -78 6 -171 9 -159 4 -170
3 -202 -17z"/>
<path d="M6080 6740 c-8 -5 -29 -10 -45 -10 -35 0 -65 -34 -39 -44 9 -3 25 -6
37 -6 12 0 39 -9 58 -19 51 -27 133 -50 204 -56 159 -13 266 -34 273 -54 6
-18 -395 -12 -1563 23 -846 25 -1188 37 -1208 42 -14 5 -17 12 -12 34 6 25 3
28 -27 32 -47 7 -58 1 -52 -32 8 -35 -2 -41 -79 -46 -105 -7 -110 -10 -100
-47 4 -18 8 -126 9 -242 2 -650 17 -1647 26 -1696 9 -45 8 -62 -5 -90 -16 -35
-37 -196 -38 -284 0 -27 -1 -86 -2 -130 -3 -125 1 -247 11 -415 6 -90 10 -797
10 -1688 0 -1237 -2 -1534 -13 -1538 -7 -3 -29 6 -49 20 -20 14 -61 30 -90 36
-28 6 -106 28 -172 49 -74 23 -132 36 -151 34 -17 -3 -34 0 -37 6 -4 6 -17 11
-28 11 -12 0 -37 12 -55 26 -28 21 -42 25 -71 21 -21 -3 -77 1 -127 9 -49 8
-127 17 -172 19 -66 3 -85 7 -102 24 -12 12 -27 21 -35 21 -7 0 -25 9 -39 20
-16 13 -28 16 -32 10 -14 -22 -27 -9 -22 20 5 24 0 37 -26 66 l-32 37 -7 391
c-3 215 -6 447 -6 516 0 296 1 842 2 2305 1 1307 -9 2232 -24 2284 -15 54 15
64 285 96 66 8 143 19 170 24 28 6 93 14 145 20 105 10 201 30 270 55 25 8 57
16 72 16 38 0 137 47 115 55 -9 4 -22 3 -29 -2 -14 -9 -283 -21 -541 -26 -86
-1 -157 -5 -157 -9 0 -5 14 -8 30 -8 17 0 30 -4 30 -9 0 -5 -42 -11 -92 -15
-120 -8 -146 -11 -155 -19 -12 -12 -90 -7 -126 8 -28 11 -43 12 -64 4 -71 -27
-111 -113 -74 -160 18 -23 19 -55 25 -654 6 -578 20 -4399 17 -4822 -1 -203 2
-213 64 -213 41 0 84 -15 90 -32 2 -7 6 -35 10 -61 6 -43 10 -50 40 -63 25
-10 41 -11 60 -4 25 9 64 11 195 9 30 0 80 1 110 3 50 2 157 -22 185 -43 6 -4
28 -10 50 -14 22 -3 83 -19 135 -34 52 -16 115 -33 140 -40 25 -6 83 -22 130
-34 67 -18 92 -30 119 -57 28 -28 32 -39 28 -67 -8 -45 12 -63 72 -63 50 0 76
17 82 54 4 17 16 19 154 23 83 1 182 8 221 13 38 6 137 15 220 20 82 5 219 16
304 24 85 8 216 20 290 26 143 11 338 27 480 40 47 4 150 13 230 19 80 6 215
18 300 26 85 8 182 17 215 19 33 3 98 10 145 16 147 17 252 16 281 -3 14 -9
36 -17 50 -16 178 4 174 3 174 24 0 28 13 45 35 45 31 0 45 36 25 66 -19 29
-23 29 -105 4 -36 -11 -89 -20 -119 -20 -29 0 -121 -6 -205 -14 -83 -8 -239
-22 -346 -31 -107 -9 -220 -21 -250 -26 -30 -5 -122 -13 -205 -19 -82 -5 -251
-18 -375 -29 -124 -11 -277 -23 -340 -26 -63 -4 -239 -17 -390 -31 -151 -13
-343 -28 -426 -34 -83 -5 -158 -12 -165 -15 -8 -3 -23 1 -33 8 -17 12 -17 17
-4 58 11 33 15 106 16 299 1 140 5 460 8 710 5 377 1 593 -20 1260 -15 443
-31 821 -36 840 -6 19 -10 79 -10 133 0 56 -4 97 -10 97 -6 0 -7 -224 -4 -627
5 -583 1 -762 -22 -952 -18 -147 -24 82 -25 1024 0 572 -4 1051 -8 1065 -19
63 -23 -217 -16 -1080 4 -509 9 -1339 11 -1845 4 -979 6 -1016 50 -957 12 16
13 16 14 -4 0 -29 -81 -50 -139 -34 -22 6 -42 14 -45 18 -2 4 -8 914 -12 2021
l-7 2014 28 -7 c16 -4 33 -2 41 4 22 19 -12 63 -42 56 -13 -3 -25 -2 -28 3
-10 16 5 41 25 41 21 0 69 20 69 29 0 4 -7 17 -16 29 -13 19 -22 22 -45 17
-27 -6 -29 -5 -29 27 0 48 15 67 29 39 16 -29 39 -27 51 5 14 35 3 47 -36 41
l-34 -6 0 787 c0 433 -3 844 -7 915 -6 127 -6 127 16 127 18 0 21 -4 16 -20
-5 -14 -2 -20 10 -20 12 0 15 6 10 20 -5 15 0 21 19 26 30 7 46 -1 46 -23 0
-9 7 -24 15 -33 12 -13 13 -26 6 -67 -6 -28 -10 -259 -11 -514 -2 -829 -1
-989 10 -989 6 0 10 127 11 358 1 366 9 478 23 352 13 -122 18 -142 28 -132 6
6 9 169 9 443 -1 373 -4 442 -18 487 -13 44 -14 55 -3 62 14 9 229 4 455 -10
83 -6 296 -12 475 -15 395 -7 1391 -41 1848 -64 127 -7 155 -11 173 -27 22
-20 33 -12 45 33 11 41 -1 53 -54 53 -35 0 -57 6 -81 24 l-34 25 28 7 c14 4
51 4 81 0 44 -5 56 -3 61 9 11 29 -12 78 -51 109 l-38 31 -286 0 -287 0 0 34
c0 37 -11 46 -35 31z m-3660 -6005 c0 -16 -45 -21 -54 -6 -8 12 4 21 31 21 14
0 23 -6 23 -15z m71 -45 c10 -6 19 -16 19 -22 0 -16 -32 -37 -57 -38 -24 0
-31 14 -13 25 6 3 10 15 10 26 0 21 12 24 41 9z"/>
<path d="M2930 6690 c0 -6 30 -10 69 -10 39 0 73 5 76 10 4 6 -22 10 -69 10
-44 0 -76 -4 -76 -10z"/>
<path d="M6717 6323 c-19 -44 -14 -1411 6 -1472 16 -51 32 -62 41 -29 8 31 8
1422 0 1482 -8 53 -28 61 -47 19z"/>
<path d="M6110 5980 c-12 -8 -12 -10 2 -15 20 -8 41 2 33 16 -8 11 -16 11 -35
-1z"/>
<path d="M6720 4740 c-14 -4 -693 -8 -1509 -9 -816 0 -1487 -3 -1490 -6 -6 -7
-10 -52 -12 -155 -1 -41 -5 -85 -10 -97 -9 -25 12 -49 37 -39 12 5 14 15 10
44 -7 42 8 79 20 49 3 -10 4 -33 1 -52 -4 -25 -2 -35 11 -40 9 -3 143 -4 297
-1 154 3 534 8 845 11 311 3 833 8 1160 11 508 5 601 3 638 -9 40 -14 43 -14
57 6 16 23 20 74 7 94 -11 18 -94 43 -122 36 -14 -3 -33 -13 -43 -21 -16 -14
-19 -14 -34 1 -13 13 -15 23 -7 44 8 23 15 27 39 25 138 -14 143 -14 162 5 24
24 22 82 -3 100 -20 14 -19 14 -54 3z m-2910 -96 c0 -29 -22 -48 -38 -32 -15
15 -15 43 -1 70 11 21 12 21 25 3 8 -10 14 -29 14 -41z m2450 11 c11 -28 47
-34 56 -10 9 21 34 19 34 -3 0 -30 11 -33 41 -11 19 14 36 18 54 13 22 -5 26
-11 23 -38 -3 -29 -5 -31 -43 -30 -22 1 -49 3 -60 5 -15 3 -20 -2 -21 -21 -2
-43 -4 -46 -22 -23 -23 29 -55 34 -60 8 -7 -34 -22 -42 -38 -20 -11 15 -34 23
-87 30 -72 10 -72 10 -75 43 l-3 32 76 0 c71 0 76 2 87 25 6 14 15 25 20 25 5
0 13 -11 18 -25z m-2088 -8 c18 -17 65 -37 88 -37 30 0 24 -16 -10 -30 -36
-15 -60 -7 -60 19 0 32 -34 43 -106 36 -43 -5 -64 -4 -64 3 0 6 26 13 58 15
31 2 62 4 69 5 6 1 18 -4 25 -11z m803 3 c28 -4 40 -8 28 -9 -12 0 -26 -9 -32
-18 -8 -15 -21 -17 -77 -14 -40 2 -73 9 -81 17 -9 8 -38 15 -71 16 l-57 2 70
6 c100 9 163 9 220 0z m-996 -13 c26 -32 -44 -38 -80 -7 l-24 19 46 1 c27 0
51 -6 58 -13z m441 -2 c8 -10 30 -15 61 -15 27 0 49 -4 49 -9 0 -41 -132 -57
-165 -21 -10 11 -24 20 -31 20 -16 0 -27 17 -19 30 10 16 91 12 105 -5z m997
-5 c5 -18 14 -20 77 -20 85 0 232 17 256 30 26 14 60 1 60 -24 0 -11 -4 -27
-9 -35 -7 -11 -11 -10 -19 5 -10 17 -12 17 -29 2 -16 -14 -37 -16 -163 -11
-146 6 -210 20 -210 46 0 31 29 36 37 7z m-777 1 c0 -5 14 -14 30 -20 19 -6
30 -17 30 -29 0 -29 -62 -34 -112 -10 -45 22 -48 40 -10 55 34 14 62 16 62 4z
m1255 -11 c-3 -5 -13 -10 -21 -10 -8 0 -12 5 -9 10 3 6 13 10 21 10 8 0 12 -4
9 -10z m-692 -19 c17 -17 -3 -31 -43 -31 -38 0 -52 12 -42 39 5 15 68 9 85 -8z
m60 3 c9 -9 -4 -35 -14 -28 -5 3 -9 12 -9 20 0 14 12 19 23 8z m-1184 -64 c66
0 101 -4 92 -9 -16 -10 -341 -12 -356 -2 -13 8 90 20 129 15 16 -2 76 -4 135
-4z"/>
<path d="M6743 4388 c-28 -37 -38 -145 -35 -413 1 -197 1 -1742 0 -2025 0 -14
1 -277 2 -585 2 -463 5 -570 18 -618 17 -65 34 -70 44 -11 9 49 -3 3622 -12
3647 -5 15 -8 16 -17 5z"/>
</g>
</svg>
