<?xml version="1.0" standalone="no"?>
<!DOCTYPE svg PUBLIC "-//W3C//DTD SVG 20010904//EN"
 "http://www.w3.org/TR/2001/REC-SVG-20010904/DTD/svg10.dtd">
<svg version="1.0" xmlns="http://www.w3.org/2000/svg"
 width="273.000000pt" height="185.000000pt" viewBox="0 0 273.000000 185.000000"
 preserveAspectRatio="xMidYMid meet">
<metadata>
Created by potrace 1.10, written by Peter Selinger 2001-2011
</metadata>
<g transform="translate(0.000000,185.000000) scale(0.050000,-0.050000)"
fill="#000000" stroke="none">
<path d="M20 2091 l0 -1589 65 -11 c200 -33 1112 -80 1960 -103 l515 -13 0
-127 0 -128 -430 0 c-417 0 -430 -1 -430 -40 0 -39 13 -40 1000 -40 987 0
1000 1 1000 40 0 39 -13 40 -420 40 l-420 0 0 68 c0 37 5 94 12 127 l12 60
503 14 c822 21 1841 74 1968 102 l45 10 0 1589 0 1590 -2690 0 -2690 0 0
-1589z m2970 -1471 c0 -25 -46 -31 -275 -36 -266 -5 -275 -4 -275 36 0 40 9
41 275 36 229 -5 275 -11 275 -36z"/>
</g>
</svg>
